<svg xmlns="http://www.w3.org/2000/svg" xmlns:xlink="http://www.w3.org/1999/xlink" width="147.343" height="56.399" viewBox="0 0 147.343 56.399"><defs><clipPath id="a"><rect width="147.343" height="56.399"/></clipPath></defs><g clip-path="url(#a)"><path d="M56.4,28.159A28.2,28.2,0,1,1,28.159,0,28.157,28.157,0,0,1,56.4,28.159" fill="#0071ce"/></g><g clip-path="url(#a)"><path d="M82,43.958h3.847v-24.8H82V16.7h21.037v6.139h-2.7v-3.6H88.876V30.206H100.09v2.538H88.876V43.877h12.279V40.029h2.619v6.385H82Z" transform="translate(-14.877 -3.03)" fill="#323e48"/></g><g clip-path="url(#a)"><path d="M112.1,43.94h3.029L125.2,16.6h3.274L138.54,43.94h3.029V46.4h-9.5V43.94h3.438l-2.865-7.695H121.022l-2.783,7.695h3.438V46.4h-9.5V43.94Zm19.728-10.15-4.42-12.2a15.434,15.434,0,0,1-.491-1.883h-.164a9.362,9.362,0,0,1-.409,1.883l-4.5,12.2Z" transform="translate(-20.338 -3.012)" fill="#323e48"/></g><g clip-path="url(#a)"><path d="M151.482,43.958h3.929v-24.8h-3.929V16.7h13.425a12.074,12.074,0,0,1,5.157.982c2.128.982,3.6,3.438,3.6,6.549a6.975,6.975,0,0,1-3.847,6.467v.082a7.273,7.273,0,0,1,4.993,7.285,8.169,8.169,0,0,1-5.075,7.776,13.148,13.148,0,0,1-4.42.655H151.4V43.958Zm14.079-14.325a4.857,4.857,0,0,0,5.075-5.239,5.179,5.179,0,0,0-2.128-4.42,6.605,6.605,0,0,0-3.52-.737H158.44v10.4ZM165.4,43.877a8.507,8.507,0,0,0,3.111-.491,5.522,5.522,0,0,0,3.274-5.4,5.543,5.543,0,0,0-5.894-5.894h-7.613V43.877Z" transform="translate(-27.469 -3.03)" fill="#323e48"/></g><g clip-path="url(#a)"><path d="M31.425,13.4a14.64,14.64,0,0,1,13.506,9.577L41.657,21.5a11.973,11.973,0,0,0-20.382-.082L18,22.814A14.7,14.7,0,0,1,31.425,13.4" transform="translate(-3.266 -2.431)" fill="#fff"/></g><g clip-path="url(#a)"><path d="M31.406,23.756,17.9,29.649V27.194L31.406,21.3l13.506,5.894v2.456Z" transform="translate(-3.248 -3.864)" fill="#fff"/></g><g clip-path="url(#a)"><rect width="27.013" height="2.21" transform="translate(14.652 41.338)" fill="#fff"/></g><g clip-path="url(#a)"><rect width="2.701" height="10.232" transform="translate(30.86 28.241)" fill="#fff"/></g><g clip-path="url(#a)"><rect width="2.701" height="10.232" transform="translate(22.756 28.241)" fill="#fff"/></g><g clip-path="url(#a)"><rect width="2.701" height="10.232" transform="translate(14.652 28.241)" fill="#fff"/></g><g clip-path="url(#a)"><rect width="2.701" height="10.232" transform="translate(38.964 28.241)" fill="#fff"/></g></svg>