<svg xmlns="http://www.w3.org/2000/svg" width="794.875" height="914.675" viewBox="0 0 794.875 914.675"><g transform="translate(-703 -7488.125)"><g transform="translate(2368.765 12739.476) rotate(180)"><g transform="translate(1211.218 4909) rotate(90)" fill="none"><path d="M182.38,0,342.351,178.236H0Z" stroke="none"/><path d="M 182.2855682373047 2.888870239257812 L 4.907989501953125 176.2356567382812 L 337.8688049316406 176.2356567382812 L 182.2855682373047 2.888870239257812 M 182.3801422119141 -1.52587890625e-05 L 342.3512878417969 178.2356567382812 L 0 178.2356567382812 L 182.3801422119141 -1.52587890625e-05 Z" stroke="none" fill="#0072ce"/></g><g transform="translate(1006.285 4950.144) rotate(90)" fill="none"><path d="M138.544,0,260.065,135.4H0Z" stroke="none"/><path d="M 138.4491271972656 2.888900756835938 L 4.908004760742188 133.3954010009766 L 255.5821075439453 133.3954010009766 L 138.4491271972656 2.888900756835938 M 138.543701171875 0 L 260.0646057128906 135.3954010009766 L 0 135.3954010009766 L 138.543701171875 0 Z" stroke="none" fill="#0072ce"/></g></g><path d="M1.5,10.7A1.473,1.473,0,0,1,0,9.2,1.538,1.538,0,0,1,1.5,7.7c1.8,0,3.9-1.7,6-3.5C10,2.1,12.6,0,15.4,0c2.9,0,5.4,2.1,7.9,4.2,2.1,1.7,4.2,3.5,6,3.5S33.2,6,35.2,4.2l.1-.1C37.8,2,40.3,0,43.1,0,46,0,48.5,2.1,51,4.2c2.1,1.7,4.2,3.5,6,3.5S60.9,6,63,4.2C65.5,2.1,68.1,0,70.9,0a1.473,1.473,0,0,1,1.5,1.5A1.473,1.473,0,0,1,70.9,3c-1.8,0-3.9,1.7-6,3.5-2.5,2.1-5.1,4.2-7.9,4.2-2.9,0-5.4-2.1-7.9-4.2C47,4.8,44.9,3,43.1,3c-1.7,0-3.8,1.7-5.9,3.4v.2c-2.5,2.1-5.1,4.2-7.9,4.2-2.9,0-5.4-2.1-7.9-4.2-2.1-1.7-4.2-3.5-6-3.5s-3.9,1.7-6,3.5C6.9,8.6,4.4,10.7,1.5,10.7Z" transform="translate(703 8392)" fill="#0072ce" fill-rule="evenodd"/><path d="M1.5,10.7A1.473,1.473,0,0,1,0,9.2,1.538,1.538,0,0,1,1.5,7.7c1.8,0,3.9-1.7,6-3.5C10,2.1,12.6,0,15.4,0c2.9,0,5.4,2.1,7.9,4.2,2.1,1.7,4.2,3.5,6,3.5S33.2,6,35.2,4.2l.1-.1C37.8,2,40.3,0,43.1,0,46,0,48.5,2.1,51,4.2c2.1,1.7,4.2,3.5,6,3.5S60.9,6,63,4.2C65.5,2.1,68.1,0,70.9,0a1.473,1.473,0,0,1,1.5,1.5A1.473,1.473,0,0,1,70.9,3c-1.8,0-3.9,1.7-6,3.5-2.5,2.1-5.1,4.2-7.9,4.2-2.9,0-5.4-2.1-7.9-4.2C47,4.8,44.9,3,43.1,3c-1.7,0-3.8,1.7-5.9,3.4v.2c-2.5,2.1-5.1,4.2-7.9,4.2-2.9,0-5.4-2.1-7.9-4.2-2.1-1.7-4.2-3.5-6-3.5s-3.9,1.7-6,3.5C6.9,8.6,4.4,10.7,1.5,10.7Z" transform="translate(1331.8 8126.6) rotate(-90)" fill="#ed8b00" fill-rule="evenodd"/></g></svg>