<svg xmlns="http://www.w3.org/2000/svg" width="44.192" height="72.4" viewBox="0 0 44.192 72.4"><g transform="translate(-1404.8 -4285.2)"><g transform="translate(497 -584.492)"><line y2="19.492" transform="translate(951.992 4896.246) rotate(90)" fill="none" stroke="#ed8b00" stroke-width="2"/><line y2="19.492" transform="translate(942.246 4886.5)" fill="none" stroke="#ed8b00" stroke-width="2"/></g><path d="M1.5,10.7A1.473,1.473,0,0,1,0,9.2,1.538,1.538,0,0,1,1.5,7.7c1.8,0,3.9-1.7,6-3.5C10,2.1,12.6,0,15.4,0c2.9,0,5.4,2.1,7.9,4.2,2.1,1.7,4.2,3.5,6,3.5S33.2,6,35.2,4.2l.1-.1C37.8,2,40.3,0,43.1,0,46,0,48.5,2.1,51,4.2c2.1,1.7,4.2,3.5,6,3.5S60.9,6,63,4.2C65.5,2.1,68.1,0,70.9,0a1.473,1.473,0,0,1,1.5,1.5A1.473,1.473,0,0,1,70.9,3c-1.8,0-3.9,1.7-6,3.5-2.5,2.1-5.1,4.2-7.9,4.2-2.9,0-5.4-2.1-7.9-4.2C47,4.8,44.9,3,43.1,3c-1.7,0-3.8,1.7-5.9,3.4v.2c-2.5,2.1-5.1,4.2-7.9,4.2-2.9,0-5.4-2.1-7.9-4.2-2.1-1.7-4.2-3.5-6-3.5s-3.9,1.7-6,3.5C6.9,8.6,4.4,10.7,1.5,10.7Z" transform="translate(1404.8 4357.6) rotate(-90)" fill="#004b87" fill-rule="evenodd"/></g></svg>